<?xml version="1.0" encoding="UTF-8"?>
<svg version="1.1" xmlns="http://www.w3.org/2000/svg" width="512" height="512">
<path d="M0 0 C1.18768982 0.45117188 2.37537964 0.90234375 3.59906006 1.3671875 C6.83835436 2.59784617 10.07209346 3.84252596 13.30501175 5.08982086 C16.69487393 6.3948707 20.08968376 7.68691386 23.48413086 8.97998047 C28.42222179 10.86235025 33.35867854 12.74890066 38.29319859 14.64061165 C47.36159296 18.11684551 56.44173295 21.56123546 65.52734375 24.9921875 C66.85781865 25.49490375 68.18827837 25.99766019 69.51872253 26.50045776 C70.49461193 26.86925395 70.49461193 26.86925395 71.49021626 27.24550056 C72.13499518 27.489168 72.77977411 27.73283543 73.4440918 27.98388672 C74.72756825 28.46889593 76.01104602 28.95390166 77.29452515 29.43890381 C77.92080685 29.67557518 78.54708855 29.91224655 79.19234848 30.15608978 C81.06052882 30.86201452 82.92877795 31.5677572 84.79702759 32.27349854 C88.29777389 33.59690508 91.79746305 34.92306979 95.296875 36.25 C96.81664948 36.8236731 96.81664948 36.8236731 98.36712646 37.40893555 C101.25460101 38.50535795 104.13461866 39.61883875 107.01171875 40.7421875 C108.65707108 41.37830963 108.65707108 41.37830963 110.33566284 42.02728271 C111.41912994 42.45897766 112.50259705 42.89067261 113.61889648 43.33544922 C114.6037352 43.72417206 115.58857391 44.1128949 116.60325623 44.51339722 C119.01171875 45.7421875 119.01171875 45.7421875 121.01171875 48.7421875 C121.64453125 51.67578125 121.64453125 51.67578125 122.13671875 55.1796875 C122.30429687 56.31277344 122.471875 57.44585937 122.64453125 58.61328125 C123.24996211 63.9686939 123.08187945 69.36153034 123.01171875 74.7421875 C137.84303913 76.19529113 137.84303913 76.19529113 150.94921875 70.921875 C153.76958271 67.79614698 155.90382027 64.37664826 158.01171875 60.7421875 C158.59953125 59.98808594 159.18734375 59.23398438 159.79296875 58.45703125 C161.2701112 56.79730227 161.2701112 56.79730227 160.69921875 54.6171875 C160.47234375 53.6684375 160.24546875 52.7196875 160.01171875 51.7421875 C159.28064904 44.41843553 160.17994044 38.11425338 164.01171875 31.7421875 C168.59764486 26.56267597 173.27782497 23.12583728 180.28125 22.40625 C189.39108021 22.30581086 194.8033243 23.20331035 201.76171875 29.0546875 C207.00336233 35.31553955 209.29385829 40.53560698 209.01171875 48.7421875 C207.93236621 56.25220889 204.80995286 61.84640228 199.01171875 66.7421875 C192.70352111 70.95558743 186.43503771 71.42828213 179.01171875 70.7421875 C178.16738281 70.48179687 177.32304687 70.22140625 176.453125 69.953125 C173.86837988 69.44730743 173.86837988 69.44730743 171.8359375 71.48046875 C171.13082031 72.32996094 170.42570312 73.17945313 169.69921875 74.0546875 C168.92578125 74.96863281 168.15234375 75.88257813 167.35546875 76.82421875 C164.46910065 80.41774703 161.61267314 84.0319083 158.8359375 87.7109375 C156.0311322 90.83406118 154.02203576 91.67068104 149.80371094 91.96923828 C147.94987793 91.95352783 147.94987793 91.95352783 146.05859375 91.9375 C145.39837219 91.9346701 144.73815063 91.93184021 144.05792236 91.92892456 C141.95899978 91.91777165 139.86051133 91.89267696 137.76171875 91.8671875 C136.3346416 91.85715134 134.90755773 91.8480266 133.48046875 91.83984375 C129.99074547 91.81784861 126.50127452 91.78335286 123.01171875 91.7421875 C123.02332031 93.05574219 123.03492188 94.36929688 123.046875 95.72265625 C123.05625703 97.45833191 123.06535679 99.19400911 123.07421875 100.9296875 C123.08259766 101.79400391 123.09097656 102.65832031 123.09960938 103.54882812 C123.10444336 104.81049805 123.10444336 104.81049805 123.109375 106.09765625 C123.11723022 107.25237427 123.11723022 107.25237427 123.12524414 108.43041992 C123.01171875 110.7421875 123.01171875 110.7421875 122.01171875 115.7421875 C133.89171875 115.7421875 145.77171875 115.7421875 158.01171875 115.7421875 C158.67171875 113.7621875 159.33171875 111.7821875 160.01171875 109.7421875 C164.79023695 103.96534038 170.78808558 100.50060974 178.1640625 99.4296875 C185.15860848 99.03632112 191.67858978 100.97187581 197.09375 105.47265625 C202.33442385 111.00018804 204.5828076 116.73901673 205.38671875 124.2421875 C204.53831517 132.16062095 202.04696944 138.39905271 196.01171875 143.7421875 C189.37410505 149.08388615 181.12676083 148.60435517 173.01171875 147.7421875 C166.84589189 146.13660238 162.39395426 142.0788636 159.01171875 136.7421875 C158.68171875 135.4221875 158.35171875 134.1021875 158.01171875 132.7421875 C145.47171875 132.7421875 132.93171875 132.7421875 120.01171875 132.7421875 C119.68171875 136.0421875 119.35171875 139.3421875 119.01171875 142.7421875 C117.88671875 146.2421875 117.88671875 146.2421875 116.01171875 148.7421875 C112.01022311 150.62968544 109.96967524 151.01330726 105.69921875 149.8046875 C102.18636538 147.10877677 101.83775127 145.02253783 101.01171875 140.7421875 C100.38654068 137.79158072 99.4257988 135.40398524 98.01171875 132.7421875 C95.50477044 128.02322598 94.88474615 124.21987477 94.87890625 118.8671875 C94.87761719 117.71605469 94.87632812 116.56492187 94.875 115.37890625 C94.87886719 114.17878906 94.88273437 112.97867188 94.88671875 111.7421875 C94.88285156 110.57300781 94.87898438 109.40382813 94.875 108.19921875 C94.88230579 101.6167023 95.17953028 95.15208077 95.7890625 88.59960938 C96.1426431 84.06199165 96.11887878 79.54063977 96.07421875 74.9921875 C96.06745117 73.64253906 96.06745117 73.64253906 96.06054688 72.265625 C96.04898034 70.09111568 96.03105678 67.91664159 96.01171875 65.7421875 C75.66240189 57.9240754 55.28313228 50.18658141 34.88671875 42.4921875 C33.78180084 42.07529663 32.67688293 41.65840576 31.53848267 41.22888184 C29.9093544 40.61430115 29.9093544 40.61430115 28.24731445 39.98730469 C27.17049911 39.58077667 26.09368378 39.17424866 24.98423767 38.75540161 C22.84313796 37.94919848 20.70078287 37.14632096 18.55714417 36.34689331 C13.13495144 34.32133239 7.74531705 32.24132158 2.38525391 30.05615234 C1.30962189 29.62723694 0.23398987 29.19832153 -0.87423706 28.75640869 C-2.90701685 27.94440128 -4.93229455 27.11323637 -6.94778442 26.25921631 C-14.65466495 23.21876254 -19.51372263 23.94782559 -27.07128906 26.93896484 C-27.81217773 27.3148877 -28.55306641 27.69081055 -29.31640625 28.078125 C-35.41083509 31.00653106 -41.69526164 33.34656026 -48.02389526 35.70779419 C-51.63152408 37.06216333 -55.22494422 38.4533316 -58.8203125 39.83984375 C-72.25708963 45.00988967 -85.72229181 50.10548886 -99.18292236 55.2130127 C-102.37468529 56.42421081 -105.56625544 57.6359158 -108.7578125 58.84765625 C-109.71781662 59.21169052 -110.67782074 59.57572479 -111.66691589 59.95079041 C-113.00512138 60.45891014 -113.00512138 60.45891014 -114.37036133 60.97729492 C-115.14495193 61.27117599 -115.91954254 61.56505707 -116.71760559 61.86784363 C-118.35399467 62.49794981 -119.97667024 63.16408807 -121.58940125 63.85249329 C-123.98828125 64.7421875 -123.98828125 64.7421875 -126.98828125 64.7421875 C-127.68210061 98.87841316 -127.68210061 98.87841316 -123.98828125 132.7421875 C-123.8166748 133.70382813 -123.64506836 134.66546875 -123.46826172 135.65625 C-117.41109942 168.48076492 -104.83468625 199.2339089 -82.98828125 224.7421875 C-82.21871094 225.64582031 -81.44914063 226.54945313 -80.65625 227.48046875 C-74.94332808 233.98510269 -68.87490988 239.50871508 -61.98828125 244.7421875 C-60.97507813 245.53238281 -59.961875 246.32257813 -58.91796875 247.13671875 C-47.60314689 255.7368684 -28.60893327 269.7421875 -13.98828125 269.7421875 C-11.09758613 268.83784894 -11.09758613 268.83784894 -8.859375 267.76953125 C-0.27386436 263.9246557 7.8555937 263.78234802 17.01171875 265.7421875 C18.18734375 265.8453125 19.36296875 265.9484375 20.57421875 266.0546875 C24.01171875 266.7421875 24.01171875 266.7421875 26.44921875 268.3671875 C28.67117914 271.74456729 28.63773413 273.77742344 28.01171875 277.7421875 C24.54737826 281.85406827 20.6703133 284.31086474 15.88671875 286.6171875 C15.2016626 286.95234375 14.51660645 287.2875 13.81079102 287.6328125 C8.29252128 290.26544965 2.66569725 292.57710903 -3.05078125 294.7421875 C-3.83533691 295.04495605 -4.61989258 295.34772461 -5.42822266 295.65966797 C-14.07123326 298.81182478 -20.22708663 297.73333993 -28.61328125 294.4296875 C-29.52625977 294.07358398 -30.43923828 293.71748047 -31.37988281 293.35058594 C-48.29308263 286.56560581 -63.4414658 277.66659806 -77.98828125 266.7421875 C-79.13975786 268.00790983 -80.28427439 269.27996656 -81.42578125 270.5546875 C-82.38291016 271.61623047 -82.38291016 271.61623047 -83.359375 272.69921875 C-85.17914137 274.74114902 -85.17914137 274.74114902 -85.98828125 277.7421875 C-85.22710565 279.66167381 -84.46576648 281.58109564 -83.703125 283.5 C-81.83546605 289.35812153 -82.55814596 295.23612744 -84.953125 300.828125 C-87.8531181 306.19037639 -91.81939692 310.59453969 -97.4609375 313.07421875 C-105.23865845 315.12984515 -113.50262629 315.15015801 -120.61328125 311.1796875 C-126.54300455 306.97372098 -130.32204773 302.10581954 -131.76953125 294.91015625 C-132.50649942 287.6062753 -131.28132523 280.77320094 -126.98828125 274.7421875 C-122.42269371 269.74609791 -117.08609659 266.04909739 -110.171875 265.53125 C-102.6074045 265.43262587 -102.6074045 265.43262587 -99.98828125 266.7421875 C-99.64796875 265.96875 -99.64796875 265.96875 -99.30078125 265.1796875 C-97.49072595 261.81815623 -95.24831721 258.81307606 -92.98828125 255.7421875 C-94.28262473 252.85623504 -95.58875282 250.9813697 -97.92578125 248.8671875 C-101.40232038 245.48480464 -104.42691845 241.85602664 -107.42578125 238.0546875 C-107.90418457 237.45519287 -108.38258789 236.85569824 -108.87548828 236.23803711 C-111.15311955 233.32678201 -113.22241258 230.45871711 -114.98046875 227.203125 C-116.79137083 223.9466101 -118.30533474 221.33495093 -120.98828125 218.7421875 C-125.73660812 217.47150848 -130.10457948 217.38551265 -134.98828125 217.7421875 C-135.18164062 218.34546875 -135.375 218.94875 -135.57421875 219.5703125 C-135.96480469 220.76914062 -135.96480469 220.76914062 -136.36328125 221.9921875 C-136.74613281 223.17554688 -136.74613281 223.17554688 -137.13671875 224.3828125 C-137.98828125 226.7421875 -137.98828125 226.7421875 -139.15234375 228.7890625 C-140.22123568 231.28647355 -139.95850695 232.23215087 -138.98828125 234.7421875 C-138.15347586 236.2530484 -137.29739132 237.75225576 -136.42578125 239.2421875 C-133.04619944 245.94223307 -132.5817216 252.34281591 -134.875 259.515625 C-137.88252582 266.17015058 -141.95722883 271.12530617 -148.8125 273.875 C-155.35722685 275.66212098 -163.04779458 276.02988279 -169.36328125 273.2421875 C-175.23365112 269.74732747 -179.96259152 264.27790342 -181.98828125 257.7421875 C-182.79423983 249.89814874 -183.10652062 242.13283834 -177.98828125 235.7421875 C-173.92722076 231.39598872 -169.96890227 227.8874128 -163.98828125 226.7421875 C-161.65616098 226.66695781 -159.31975015 226.64892874 -156.98828125 226.7421875 C-156.63765625 225.5665625 -156.28703125 224.3909375 -155.92578125 223.1796875 C-154.39240194 218.58688631 -152.50012458 214.20312413 -150.48828125 209.8046875 C-150.19171631 209.14202881 -149.89515137 208.47937012 -149.58959961 207.79663086 C-148.02136854 204.43068206 -147.14662893 202.84775262 -143.98828125 200.7421875 C-140.8515625 200.546875 -140.8515625 200.546875 -137.30078125 200.6171875 C-136.12128906 200.63523437 -134.94179687 200.65328125 -133.7265625 200.671875 C-132.82292969 200.69507813 -131.91929687 200.71828125 -130.98828125 200.7421875 C-131.44267578 199.62976685 -131.44267578 199.62976685 -131.90625 198.49487305 C-133.27231311 195.14197623 -134.63038277 191.78589874 -135.98828125 188.4296875 C-136.46523437 187.26244141 -136.9421875 186.09519531 -137.43359375 184.89257812 C-138.11035156 183.21518555 -138.11035156 183.21518555 -138.80078125 181.50390625 C-139.42919922 179.956427 -139.42919922 179.956427 -140.0703125 178.37768555 C-140.98828125 175.7421875 -140.98828125 175.7421875 -140.98828125 172.7421875 C-148.57828125 172.7421875 -156.16828125 172.7421875 -163.98828125 172.7421875 C-164.64828125 174.0621875 -165.30828125 175.3821875 -165.98828125 176.7421875 C-166.90025272 177.86811705 -167.85463208 178.96073238 -168.84375 180.01953125 C-169.38322266 180.61572266 -169.92269531 181.21191406 -170.47851562 181.82617188 C-171.61345073 183.06558892 -172.75678121 184.29736841 -173.90820312 185.52148438 C-177.18366321 188.92553251 -177.18366321 188.92553251 -177.875 193.359375 C-177.58238281 194.14570313 -177.28976563 194.93203125 -176.98828125 195.7421875 C-176.11310244 203.88135041 -177.30102001 209.96112428 -181.98828125 216.7421875 C-186.51355994 222.1863045 -192.06332058 224.64166901 -198.98828125 225.7421875 C-206.7844519 226.25142415 -213.00137561 223.68881521 -218.98828125 218.7421875 C-225.28730259 211.08512027 -225.74014362 203.41973024 -224.98828125 193.7421875 C-223.3584686 187.4880269 -219.3069972 183.23361453 -213.98828125 179.7421875 C-207.1392777 175.96882796 -199.82438353 175.68395239 -192.36328125 177.7421875 C-191.57953125 178.0721875 -190.79578125 178.4021875 -189.98828125 178.7421875 C-189.7135498 178.15050781 -189.43881836 177.55882812 -189.15576172 176.94921875 C-188.03788822 174.83596563 -186.86655996 173.23234636 -185.30859375 171.4296875 C-184.53322266 170.52863281 -184.53322266 170.52863281 -183.7421875 169.609375 C-183.20464844 168.99320313 -182.66710937 168.37703125 -182.11328125 167.7421875 C-181.58347656 167.12601563 -181.05367187 166.50984375 -180.5078125 165.875 C-172.86138112 157.03322079 -172.86138112 157.03322079 -168.98828125 155.7421875 C-167.21514274 155.66008958 -165.4390735 155.63472456 -163.6640625 155.64453125 C-162.63603516 155.64775391 -161.60800781 155.65097656 -160.54882812 155.65429688 C-158.94104492 155.66686523 -158.94104492 155.66686523 -157.30078125 155.6796875 C-155.6755957 155.68645508 -155.6755957 155.68645508 -154.01757812 155.69335938 C-151.3410904 155.70515007 -148.66471348 155.72160687 -145.98828125 155.7421875 C-146.26542969 154.69160156 -146.54257813 153.64101562 -146.828125 152.55859375 C-147.19433378 151.14070848 -147.56020079 149.7227349 -147.92578125 148.3046875 C-148.19938477 147.27311523 -148.19938477 147.27311523 -148.47851562 146.22070312 C-149.82272801 140.96605472 -150.37689462 136.24466713 -150.98828125 130.7421875 C-163.85828125 130.7421875 -176.72828125 130.7421875 -189.98828125 130.7421875 C-190.64828125 132.3921875 -191.30828125 134.0421875 -191.98828125 135.7421875 C-195.25222641 141.18209611 -200.09467812 143.80402271 -205.98828125 145.7421875 C-213.57699787 146.90325185 -220.13393316 146.21261713 -226.828125 142.359375 C-232.51608159 138.10112178 -235.73871716 132.73974639 -236.98828125 125.7421875 C-237.72743843 118.22742281 -235.9789669 111.78529165 -231.4453125 105.65625 C-226.78608033 100.60252906 -222.10580931 98.16404102 -215.28125 97.46484375 C-206.16138619 97.1529469 -200.55713552 99.94054019 -193.6875 105.73046875 C-191.98828125 107.7421875 -191.98828125 107.7421875 -189.98828125 113.7421875 C-177.77828125 113.7421875 -165.56828125 113.7421875 -152.98828125 113.7421875 C-153.31828125 110.1121875 -153.64828125 106.4821875 -153.98828125 102.7421875 C-154.04798165 100.3470075 -154.07654238 97.95047291 -154.05078125 95.5546875 C-154.04175781 94.44738281 -154.03273438 93.34007812 -154.0234375 92.19921875 C-154.01183594 91.38839844 -154.00023437 90.57757813 -153.98828125 89.7421875 C-154.83011963 89.75789795 -155.67195801 89.7736084 -156.53930664 89.78979492 C-159.69081307 89.84121001 -162.84210424 89.8786763 -165.99389648 89.90698242 C-167.35269242 89.92198159 -168.71144066 89.94238788 -170.07006836 89.96850586 C-184.49905215 90.23875124 -184.49905215 90.23875124 -189.98828125 86.7421875 C-192.4296875 84.2890625 -192.4296875 84.2890625 -194.55078125 81.4921875 C-195.30359375 80.51894531 -196.05640625 79.54570312 -196.83203125 78.54296875 C-197.899375 77.15658203 -197.899375 77.15658203 -198.98828125 75.7421875 C-200.16557199 74.37913573 -201.35139585 73.0233386 -202.55078125 71.6796875 C-204.98828125 68.7421875 -204.98828125 68.7421875 -204.98828125 66.7421875 C-206.44234375 67.2371875 -206.44234375 67.2371875 -207.92578125 67.7421875 C-215.25777605 69.79691991 -222.24934269 69.38671549 -228.98828125 65.7421875 C-235.09348048 61.74265903 -238.62342281 56.81022803 -240.51953125 49.76953125 C-241.77740195 42.5796567 -240.13352717 36.20266191 -236.42578125 29.9921875 C-232.53689905 24.60613273 -227.95108215 21.75342856 -221.5390625 20.1171875 C-214.33369173 19.03129175 -207.91893331 20.29569544 -201.72265625 24.15234375 C-196.34997567 28.36094354 -193.5372116 33.11237095 -191.98828125 39.7421875 C-191.56371402 43.97555354 -191.31935989 48.05707496 -192.90625 52.0546875 C-193.04635214 56.64470062 -189.62344413 59.22361526 -186.61328125 62.4296875 C-185.3957474 63.76566345 -184.1795366 65.1028467 -182.96484375 66.44140625 C-182.41908691 67.02752686 -181.87333008 67.61364746 -181.31103516 68.2175293 C-179.98828125 69.7421875 -179.98828125 69.7421875 -178.98828125 71.7421875 C-170.73828125 71.7421875 -162.48828125 71.7421875 -153.98828125 71.7421875 C-153.45106813 65.05735715 -153.45106813 65.05735715 -152.94213867 58.37036133 C-152.83156128 57.11002075 -152.83156128 57.11002075 -152.71875 55.82421875 C-152.65067139 54.97061768 -152.58259277 54.1170166 -152.51245117 53.23754883 C-151.8658161 50.15918039 -150.89462815 48.24744723 -148.98828125 45.7421875 C-146.66577148 44.39086914 -146.66577148 44.39086914 -143.859375 43.33984375 C-142.78155762 42.92492676 -141.70374023 42.51000977 -140.59326172 42.08251953 C-139.40361816 41.64020996 -138.21397461 41.19790039 -136.98828125 40.7421875 C-135.72700241 40.25246882 -134.46677519 39.76003457 -133.20751953 39.26513672 C-128.83039008 37.54782953 -124.44110082 35.86293344 -120.05078125 34.1796875 C-119.23412994 33.8659317 -118.41747864 33.5521759 -117.57608032 33.22891235 C-99.79468284 26.39840765 -81.97185776 19.67741612 -64.14282227 12.97241211 C-63.08326828 12.57353287 -62.02371429 12.17465363 -60.93205261 11.76368713 C-58.82271564 10.97002683 -56.71286754 10.17772355 -54.60249329 9.38682556 C-48.99594524 7.27948699 -43.4116119 5.12646502 -37.84619141 2.91259766 C-36.67087357 2.44876175 -35.49555573 1.98492584 -34.28462219 1.5070343 C-32.03274948 0.61630095 -29.78459826 -0.28391953 -27.54093933 -1.19514465 C-16.77171731 -5.43959947 -10.59082 -4.11876923 0 0 Z M-221.98828125 39.7421875 C-223.3546428 40.90085671 -223.3546428 40.90085671 -223.36328125 44.0546875 C-223.33304155 47.81554133 -223.33304155 47.81554133 -220.86328125 50.2421875 C-218.06698172 51.9831073 -218.06698172 51.9831073 -214.86328125 51.7421875 C-211.55226829 50.59053082 -210.54586355 49.8573521 -208.98828125 46.7421875 C-208.40494792 44.2421875 -208.40494792 44.2421875 -208.98828125 41.7421875 C-210.78661602 39.4300428 -212.2921122 38.07904349 -214.92578125 36.8046875 C-217.93670128 36.7134475 -219.57382451 38.04554222 -221.98828125 39.7421875 Z M178.57421875 41.8671875 C176.7630139 44.65444443 176.7630139 44.65444443 177.01171875 47.8671875 C178.16337543 51.17820046 178.89655415 52.1846052 182.01171875 53.7421875 C185.30674721 54.31881748 186.53992073 54.06096995 189.32421875 52.1796875 C191.6439793 48.82892227 191.59176551 46.73000895 191.01171875 42.7421875 C188.81999076 40.12897336 187.36517783 39.80109735 184.01171875 39.2421875 C180.86218131 39.49769147 180.86218131 39.49769147 178.57421875 41.8671875 Z M-218.98828125 117.7421875 C-220.15938574 120.6017881 -220.15938574 120.6017881 -219.98828125 123.7421875 C-218.64712726 126.75198633 -218.64712726 126.75198633 -215.98828125 128.7421875 C-212.48828125 129.57552083 -212.48828125 129.57552083 -208.98828125 128.7421875 C-206.32943524 126.75198633 -206.32943524 126.75198633 -204.98828125 123.7421875 C-204.98828125 120.18127849 -205.29478887 118.48521505 -207.73828125 115.8671875 C-212.15932342 113.65666641 -215.58910069 114.10020833 -218.98828125 117.7421875 Z M174.01171875 119.7421875 C172.84061426 122.6017881 172.84061426 122.6017881 173.01171875 125.7421875 C174.6997752 128.55561492 176.02261975 130.23168479 178.94921875 131.7421875 C181.9930709 131.7421875 183.5973876 130.52116835 186.01171875 128.7421875 C188.26813806 126.00385948 188.26813806 126.00385948 187.88671875 123.3046875 C186.80941003 120.14971195 185.67552298 118.74004067 183.01171875 116.7421875 C179.04331805 116.04771738 176.76086795 116.7966705 174.01171875 119.7421875 Z M-205.73828125 195.3671875 C-208.24725659 197.57232899 -208.24725659 197.57232899 -208.48828125 200.7421875 C-207.94167648 204.02181611 -207.36942344 205.4460861 -204.98828125 207.7421875 C-202.11135382 209.23025341 -200.93677086 208.72602738 -197.80078125 207.7421875 C-194.69322839 205.93919478 -194.69322839 205.93919478 -193.80078125 202.3671875 C-193.65848188 198.61779768 -193.65848188 198.61779768 -196.17578125 195.8046875 C-199.89356622 193.07831185 -201.76902982 193.02172075 -205.73828125 195.3671875 Z M-163.36328125 245.3671875 C-165.47534631 248.45405182 -165.6002327 250.0704788 -164.98828125 253.7421875 C-163.48828125 256.2421875 -163.48828125 256.2421875 -160.98828125 257.7421875 C-157.31657255 258.35413895 -155.70014557 258.22925256 -152.61328125 256.1171875 C-150.50121619 253.03032318 -150.3763298 251.4138962 -150.98828125 247.7421875 C-152.48828125 245.2421875 -152.48828125 245.2421875 -154.98828125 243.7421875 C-158.65998995 243.13023605 -160.27641693 243.25512244 -163.36328125 245.3671875 Z M-113.98828125 286.7421875 C-115.06470834 288.63069105 -115.06470834 288.63069105 -114.98828125 290.7421875 C-113.84041184 292.98575044 -112.77870455 294.9517642 -110.98828125 296.7421875 C-107.61470791 297.24289071 -107.61470791 297.24289071 -103.98828125 296.7421875 C-101.32943524 294.75198633 -101.32943524 294.75198633 -99.98828125 291.7421875 C-99.98828125 288.18127849 -100.29478887 286.48521505 -102.73828125 283.8671875 C-107.76013176 281.35626225 -110.60980651 282.39843427 -113.98828125 286.7421875 Z " fill="#14279B" transform="translate(271.98828125,69.2578125)"/>
<path d="M0 0 C9.35792328 7.57465297 15.58537232 18.23037338 18 30 C18.32229923 34.05434364 18.28831334 38.06144675 18.1875 42.125 C18.17396484 43.176875 18.16042969 44.22875 18.14648438 45.3125 C18.11153356 47.87555954 18.06247682 50.43748913 18 53 C19.16015625 53.02126953 19.16015625 53.02126953 20.34375 53.04296875 C29.43627031 53.45933416 34.4141639 55.4141639 40.8125 61.8125 C45.88449676 69.20312385 46.43902763 75.69141078 46.38818359 84.41381836 C46.39606903 86.091007 46.39606903 86.091007 46.40411377 87.80207825 C46.41726834 91.48147744 46.4085908 95.1604405 46.3984375 98.83984375 C46.40045967 101.4075987 46.40337231 103.97535309 46.40713501 106.54310608 C46.41155235 111.91869113 46.40543521 117.29411378 46.39111328 122.66967773 C46.3747974 128.86478084 46.38007245 135.05958753 46.3965925 141.25468343 C46.41190302 147.23799694 46.4102108 153.22116667 46.4014473 159.2045002 C46.39945125 161.73974207 46.40188355 164.27499155 46.40888596 166.81022453 C46.41653731 170.35928004 46.40484346 173.90777327 46.38818359 177.45678711 C46.39425629 178.49654694 46.40032898 179.53630676 46.40658569 180.60757446 C46.33764133 188.56888425 45.29213184 196.58993373 39.61655331 202.66359806 C32.39496668 208.63367175 24.99086853 209.72939807 15.90014648 209.63110352 C14.73296082 209.63825882 13.56577515 209.64541412 12.36322021 209.65278625 C8.5321047 209.66959789 4.70217168 209.65031394 0.87109375 209.62890625 C-1.80591886 209.62973558 -4.48289134 209.63214265 -7.15989685 209.63621521 C-12.75899692 209.64072157 -18.35776132 209.6249561 -23.95678711 209.59692383 C-30.40990681 209.56486248 -36.86242203 209.56489829 -43.31558472 209.5821386 C-49.5509552 209.59805639 -55.78610621 209.5912376 -62.02146721 209.57420158 C-64.66276494 209.56903144 -67.30408006 209.56948733 -69.94537544 209.57574654 C-73.64047397 209.58121706 -77.33455817 209.56076276 -81.02954102 209.53344727 C-82.65459816 209.54323608 -82.65459816 209.54323608 -84.31248474 209.55322266 C-92.01456409 209.4567644 -98.30002296 208.0514001 -104.33984375 203.0703125 C-104.86707031 202.42835938 -105.39429688 201.78640625 -105.9375 201.125 C-106.48277344 200.48820313 -107.02804687 199.85140625 -107.58984375 199.1953125 C-111.58247136 192.97964293 -111.30202642 186.59426307 -111.30639648 179.46191406 C-111.31472 178.30667236 -111.32304352 177.15143066 -111.33161926 175.96118164 C-111.35569414 172.14596169 -111.36448871 168.33091283 -111.37109375 164.515625 C-111.37779449 162.52982221 -111.38449759 160.54401941 -111.39152867 158.55821776 C-111.41297003 152.31452099 -111.42232971 146.07087847 -111.42553711 139.82714844 C-111.42916839 133.40705692 -111.45904087 126.9874446 -111.50094169 120.5674994 C-111.53574927 115.03858902 -111.55108736 109.50983664 -111.55178314 103.98081756 C-111.55257255 100.68612303 -111.56355731 97.39202466 -111.58978081 94.09741974 C-111.61674638 90.41641465 -111.61185252 86.7367187 -111.59936523 83.05566406 C-111.61419952 81.97895447 -111.62903381 80.90224487 -111.64431763 79.79290771 C-111.5677013 71.82986723 -109.82227452 64.87966132 -104.0860815 59.05734634 C-97.45578343 53.43359247 -90.40981969 52.89806279 -82 53 C-82.02094727 52.36610352 -82.04189453 51.73220703 -82.06347656 51.07910156 C-82.74263752 27.41163161 -82.74263752 27.41163161 -78 18 C-77.56429687 17.12472656 -77.12859375 16.24945313 -76.6796875 15.34765625 C-70.18466074 3.54658305 -60.05658308 -4.18995799 -47.5 -8.9375 C-30.99481831 -13.2106862 -13.69369993 -9.96326729 0 0 Z M-41 36 C-42.26438458 39.54027682 -42.09976829 43.02317071 -42.0625 46.75 C-42.041875 48.8125 -42.02125 50.875 -42 53 C-35.4 53 -28.8 53 -22 53 C-21.44489033 42.52510209 -21.44489033 42.52510209 -25 33 C-31.35342198 28.76438535 -36.58841501 30.11788668 -41 36 Z " fill="#5B79E9" transform="translate(422,238)"/>
<path d="M0 0 C4.37149079 1.48970374 8.54768934 3.40710448 12.75 5.3125 C14.04063336 5.88615617 15.3318297 6.45854712 16.62353516 7.02978516 C19.48611829 8.29813364 22.34515388 9.57409477 25.20214844 10.85498047 C30.45145463 13.20593284 35.71348875 15.5277234 40.9765625 17.84765625 C46.59348607 20.32415814 52.21030133 22.80085824 57.82324219 25.28637695 C59.13784424 25.86827538 59.13784424 25.86827538 60.47900391 26.46192932 C62.19999157 27.22458207 63.92038245 27.9885831 65.64013672 28.75401306 C69.65716683 30.53866605 73.68137862 32.29539812 77.73925781 33.98535156 C78.47777985 34.29650909 79.21630188 34.60766663 79.97720337 34.92825317 C81.34666986 35.50331854 82.71997535 36.06936617 84.0977478 36.62423706 C87.73854234 38.1618033 90.12882143 39.45227884 92 43 C92.38818359 45.09277344 92.38818359 45.09277344 92.3984375 47.359375 C92.40786377 48.64279785 92.40786377 48.64279785 92.41748047 49.95214844 C92.40346191 50.87543945 92.38944336 51.79873047 92.375 52.75 C92.36484863 53.72227539 92.35469727 54.69455078 92.34423828 55.69628906 C91.47148046 98.00812955 79.10268407 141.04130679 52 174 C50.93652344 175.32064453 50.93652344 175.32064453 49.8515625 176.66796875 C44.87820792 182.56494633 39.11165552 187.32130326 33 192 C31.84757812 192.89332031 31.84757812 192.89332031 30.671875 193.8046875 C25.50341171 197.61950564 20.03062902 200.72942168 14.375 203.75 C13.67036621 204.12705078 12.96573242 204.50410156 12.23974609 204.89257812 C-1.09415028 211.85372505 -1.09415028 211.85372505 -9 211 C-11.65652936 210.1004345 -14.04038648 209.17650704 -16.5625 208 C-17.25577393 207.68385742 -17.94904785 207.36771484 -18.66333008 207.04199219 C-31.20840512 201.21212947 -41.85033232 194.36162052 -52 185 C-52.50772949 184.54141602 -53.01545898 184.08283203 -53.53857422 183.61035156 C-87.56564566 152.63292771 -100.52683834 103.78910127 -103.15649414 59.35571289 C-103.26988598 56.92382495 -103.330927 54.49653184 -103.375 52.0625 C-103.43107422 50.84723633 -103.43107422 50.84723633 -103.48828125 49.60742188 C-103.49988281 48.82044922 -103.51148438 48.03347656 -103.5234375 47.22265625 C-103.5531665 46.18250366 -103.5531665 46.18250366 -103.58349609 45.12133789 C-102.64392674 41.70547259 -100.69326484 40.23922871 -98 38 C-95.49491086 36.60128417 -92.89811955 35.54496851 -90.23046875 34.49609375 C-89.4569809 34.17979507 -88.68349304 33.8634964 -87.88656616 33.53761292 C-85.32471274 32.49275582 -82.75620066 31.46539445 -80.1875 30.4375 C-78.38801318 29.70649767 -76.58911437 28.97404639 -74.79077148 28.24023438 C-71.92971347 27.07321463 -69.06820985 25.90739529 -66.20478821 24.7461853 C-55.37188502 20.35261478 -44.58352736 15.85310127 -33.79605103 11.34939575 C-30.58706859 10.01025274 -27.37705388 8.67361342 -24.16674805 7.33764648 C-22.19578188 6.5168097 -20.2248337 5.69592974 -18.25390625 4.875 C-17.34434174 4.49662491 -16.43477722 4.11824982 -15.49765015 3.72840881 C-14.66770538 3.38233078 -13.83776062 3.03625275 -12.98266602 2.6796875 C-11.89575218 2.22698486 -11.89575218 2.22698486 -10.78688049 1.76513672 C-6.93093331 0.11403202 -4.2270659 -0.66719193 0 0 Z M-11.90234375 29.75390625 C-12.94929413 30.19268097 -12.94929413 30.19268097 -14.01739502 30.64031982 C-16.32627537 31.60928778 -18.63191066 32.58572993 -20.9375 33.5625 C-23.3589489 34.58265907 -25.78101092 35.60135342 -28.20307922 36.62004089 C-29.88393596 37.32722092 -31.56450399 38.03508754 -33.24479675 38.74360657 C-39.27036566 41.28210624 -45.31088638 43.7822935 -51.359375 46.265625 C-53.83472142 47.28492768 -56.30985912 48.30473561 -58.78494263 49.32467651 C-60.38616704 49.98302794 -61.98828125 50.6392194 -63.59127808 51.29324341 C-65.82773982 52.20632916 -68.06065611 53.12760778 -70.29296875 54.05078125 C-70.96104553 54.32098083 -71.62912231 54.59118042 -72.31744385 54.86956787 C-75.81833509 56.16033213 -75.81833509 56.16033213 -78 59 C-76.28635787 97.55694792 -64.25697808 139.44857552 -35.33007812 166.56542969 C-29.08827253 172.06759936 -22.31399633 176.68308068 -15.0625 180.75 C-14.46010498 181.09788574 -13.85770996 181.44577148 -13.23706055 181.80419922 C-8.76743901 184.16053768 -5.84373035 184.25882258 -1 183 C7.11038373 179.50720701 14.31447275 174.72358088 21 169 C21.79921875 168.34515625 22.5984375 167.6903125 23.421875 167.015625 C47.62030452 146.42441479 58.75967263 114.75748804 64.25 84.375 C64.41338867 83.48200195 64.57677734 82.58900391 64.74511719 81.66894531 C66.12947427 73.48382338 66.58010671 65.27920037 67 57 C58.75342414 53.38168314 50.50386907 49.77025401 42.25071716 46.16696167 C38.13321796 44.36922773 34.01653516 42.56966631 29.90136719 40.76660156 C25.65750864 38.90751877 21.4111691 37.05420799 17.16317749 35.20458984 C15.51342751 34.48516927 13.86451908 33.76381575 12.21646118 33.04052734 C9.90040987 32.02449625 7.58146872 31.01536453 5.26171875 30.0078125 C4.22318253 29.54944504 4.22318253 29.54944504 3.16366577 29.08181763 C-2.94221575 26.44544311 -5.99927955 27.23646818 -11.90234375 29.75390625 Z " fill="#15289B" transform="translate(262,111)"/>
<path d="M0 0 C9.35792328 7.57465297 15.58537232 18.23037338 18 30 C18.32229923 34.05434364 18.28831334 38.06144675 18.1875 42.125 C18.17396484 43.176875 18.16042969 44.22875 18.14648438 45.3125 C18.11153356 47.87555954 18.06247682 50.43748913 18 53 C19.16015625 53.02126953 19.16015625 53.02126953 20.34375 53.04296875 C29.43627031 53.45933416 34.4141639 55.4141639 40.8125 61.8125 C45.88449676 69.20312385 46.43902763 75.69141078 46.38818359 84.41381836 C46.39606903 86.091007 46.39606903 86.091007 46.40411377 87.80207825 C46.41726834 91.48147744 46.4085908 95.1604405 46.3984375 98.83984375 C46.40045967 101.4075987 46.40337231 103.97535309 46.40713501 106.54310608 C46.41155235 111.91869113 46.40543521 117.29411378 46.39111328 122.66967773 C46.3747974 128.86478084 46.38007245 135.05958753 46.3965925 141.25468343 C46.41190302 147.23799694 46.4102108 153.22116667 46.4014473 159.2045002 C46.39945125 161.73974207 46.40188355 164.27499155 46.40888596 166.81022453 C46.41653731 170.35928004 46.40484346 173.90777327 46.38818359 177.45678711 C46.39425629 178.49654694 46.40032898 179.53630676 46.40658569 180.60757446 C46.33764133 188.56888425 45.29213184 196.58993373 39.61655331 202.66359806 C32.39496668 208.63367175 24.99086853 209.72939807 15.90014648 209.63110352 C14.73296082 209.63825882 13.56577515 209.64541412 12.36322021 209.65278625 C8.5321047 209.66959789 4.70217168 209.65031394 0.87109375 209.62890625 C-1.80591886 209.62973558 -4.48289134 209.63214265 -7.15989685 209.63621521 C-12.75899692 209.64072157 -18.35776132 209.6249561 -23.95678711 209.59692383 C-30.40990681 209.56486248 -36.86242203 209.56489829 -43.31558472 209.5821386 C-49.5509552 209.59805639 -55.78610621 209.5912376 -62.02146721 209.57420158 C-64.66276494 209.56903144 -67.30408006 209.56948733 -69.94537544 209.57574654 C-73.64047397 209.58121706 -77.33455817 209.56076276 -81.02954102 209.53344727 C-82.65459816 209.54323608 -82.65459816 209.54323608 -84.31248474 209.55322266 C-92.01456409 209.4567644 -98.30002296 208.0514001 -104.33984375 203.0703125 C-104.86707031 202.42835938 -105.39429688 201.78640625 -105.9375 201.125 C-106.48277344 200.48820313 -107.02804687 199.85140625 -107.58984375 199.1953125 C-111.58247136 192.97964293 -111.30202642 186.59426307 -111.30639648 179.46191406 C-111.31472 178.30667236 -111.32304352 177.15143066 -111.33161926 175.96118164 C-111.35569414 172.14596169 -111.36448871 168.33091283 -111.37109375 164.515625 C-111.37779449 162.52982221 -111.38449759 160.54401941 -111.39152867 158.55821776 C-111.41297003 152.31452099 -111.42232971 146.07087847 -111.42553711 139.82714844 C-111.42916839 133.40705692 -111.45904087 126.9874446 -111.50094169 120.5674994 C-111.53574927 115.03858902 -111.55108736 109.50983664 -111.55178314 103.98081756 C-111.55257255 100.68612303 -111.56355731 97.39202466 -111.58978081 94.09741974 C-111.61674638 90.41641465 -111.61185252 86.7367187 -111.59936523 83.05566406 C-111.61419952 81.97895447 -111.62903381 80.90224487 -111.64431763 79.79290771 C-111.5677013 71.82986723 -109.82227452 64.87966132 -104.0860815 59.05734634 C-97.45578343 53.43359247 -90.40981969 52.89806279 -82 53 C-82.02094727 52.36610352 -82.04189453 51.73220703 -82.06347656 51.07910156 C-82.74263752 27.41163161 -82.74263752 27.41163161 -78 18 C-77.56429687 17.12472656 -77.12859375 16.24945313 -76.6796875 15.34765625 C-70.18466074 3.54658305 -60.05658308 -4.18995799 -47.5 -8.9375 C-30.99481831 -13.2106862 -13.69369993 -9.96326729 0 0 Z M-41 36 C-42.26438458 39.54027682 -42.09976829 43.02317071 -42.0625 46.75 C-42.041875 48.8125 -42.02125 50.875 -42 53 C-35.4 53 -28.8 53 -22 53 C-21.44489033 42.52510209 -21.44489033 42.52510209 -25 33 C-31.35342198 28.76438535 -36.58841501 30.11788668 -41 36 Z M-93.65660095 71.86061096 C-95.65568619 76.53227297 -95.565318 80.8271531 -95.53344727 85.86132812 C-95.54206284 86.95618027 -95.55067841 88.05103241 -95.55955505 89.17906189 C-95.58225065 92.79669866 -95.57546946 96.41356311 -95.56640625 100.03125 C-95.57163997 102.54561596 -95.57791552 105.05997994 -95.58518982 107.57434082 C-95.5956005 112.84341689 -95.59135149 118.11229226 -95.57641602 123.38134766 C-95.55948865 129.46700045 -95.57533978 135.55193626 -95.6076389 141.63751078 C-95.63757007 147.49966031 -95.63951671 153.3615323 -95.6301403 159.22373962 C-95.62931944 161.71484815 -95.63620857 164.20597147 -95.65091133 166.69703674 C-95.66830796 170.17811543 -95.65385337 173.65765545 -95.63110352 177.13867188 C-95.64279572 178.16947372 -95.65448792 179.20027557 -95.66653442 180.26231384 C-95.60803376 184.65633493 -95.40905757 187.30766668 -93.14512634 191.13938904 C-88.48165837 193.89822881 -84.37625021 193.69101023 -79.046875 193.63110352 C-77.94226929 193.63825882 -76.83766357 193.64541412 -75.69958496 193.65278625 C-72.04930227 193.66969099 -68.40024455 193.65025854 -64.75 193.62890625 C-62.21321511 193.62973477 -59.67643027 193.63219353 -57.13964844 193.63621521 C-51.82338889 193.63907446 -46.50756268 193.62488873 -41.19140625 193.59692383 C-35.05129027 193.56487298 -28.91180948 193.56488847 -22.77164841 193.5821386 C-16.85718311 193.59802041 -10.9429122 193.59116169 -5.02844238 193.57420158 C-2.51501994 193.56901612 -0.00157922 193.56950596 2.51184082 193.57574654 C6.0239199 193.58119308 9.53491895 193.5608394 13.046875 193.53344727 C14.60710388 193.54323608 14.60710388 193.54323608 16.19885254 193.55322266 C20.30268304 193.49876324 23.34981165 193.27890541 27.14512634 191.65086365 C30.1331741 187.38054198 29.68752311 183.14194222 29.63110352 178.05273438 C29.63825882 176.93691483 29.64541412 175.82109528 29.65278625 174.67146301 C29.66971224 170.97847714 29.65024615 167.28669846 29.62890625 163.59375 C29.62973458 161.03072 29.63219259 158.46769006 29.63621521 155.90466309 C29.63907592 150.53115486 29.62487331 145.1580946 29.59692383 139.78466797 C29.56487185 133.57468661 29.56488765 127.36533324 29.5821386 121.15530729 C29.59800967 115.17833957 29.59116939 109.20166398 29.57420158 103.22468567 C29.56901177 100.68252579 29.56951121 98.14034783 29.57574654 95.59819031 C29.58118595 92.04748403 29.56086237 88.49784983 29.53344727 84.94726562 C29.53997314 83.89259598 29.54649902 82.83792633 29.55322266 81.751297 C29.5015885 77.82593681 29.44424515 74.87660723 27.65660095 71.34913635 C23.25192439 69.11225194 18.82867422 69.4366978 13.9609375 69.46655273 C12.27257782 69.45362938 12.27257782 69.45362938 10.55010986 69.44044495 C6.82484018 69.41771868 3.10031863 69.42453622 -0.625 69.43359375 C-3.21045151 69.42836136 -5.79590109 69.42208631 -8.38134766 69.41481018 C-13.80185936 69.40439375 -19.22208444 69.40865735 -24.64257812 69.42358398 C-30.90715409 69.44051196 -37.1710336 69.42466184 -43.43553352 69.3923611 C-49.46482331 69.36245179 -55.49375826 69.36047871 -61.52313232 69.3698597 C-64.08763535 69.37068131 -66.65215268 69.36377811 -69.21661377 69.34908867 C-72.79857529 69.33171663 -76.37903703 69.34612623 -79.9609375 69.36889648 C-81.02495789 69.35720428 -82.08897827 69.34551208 -83.1852417 69.33346558 C-88.78195408 69.38328797 -88.78195408 69.38328797 -93.65660095 71.86061096 Z " fill="#14279B" transform="translate(422,238)"/>
<path d="M0 0 C0.69141083 0.26904648 1.38282166 0.53809296 2.09518433 0.81529236 C3.61905283 1.40861438 5.14196219 2.00440422 6.66403198 2.60232544 C10.95958264 4.28873802 15.26322175 5.95427736 19.56640625 7.62109375 C20.51903854 7.99046555 21.47167084 8.35983734 22.45317078 8.74040222 C35.58185155 13.82038464 48.76059866 18.76884657 61.93522263 23.72811127 C63.94731518 24.48558865 65.95928952 25.2433791 67.97122192 26.00128174 C71.81138871 27.44788112 75.65177056 28.89390859 79.4921875 30.33984375 C81.29300529 31.01811218 81.29300529 31.01811218 83.13020325 31.71008301 C88.20320324 33.61964069 93.27722265 35.52590231 98.35986328 37.40966797 C99.12367813 37.69337753 99.88749298 37.9770871 100.67445374 38.26939392 C102.59924498 38.98327761 104.52526755 39.69383914 106.45141602 40.40405273 C109.02734375 41.4296875 109.02734375 41.4296875 110.02734375 42.4296875 C111.04181711 48.20608856 111.18555199 54.0676652 111.1953125 59.91796875 C111.2015287 61.08378227 111.2015287 61.08378227 111.20787048 62.27314758 C111.21745312 64.76287697 111.21754276 67.25244269 111.21484375 69.7421875 C111.21490417 70.59117615 111.2149646 71.44016479 111.21502686 72.31488037 C111.19813445 88.94054208 110.1548558 105.06015636 107.02734375 121.4296875 C104.02734375 120.4296875 104.02734375 120.4296875 102.89453125 118.72265625 C102.56710937 118.02785156 102.2396875 117.33304687 101.90234375 116.6171875 C101.40347656 115.58658203 101.40347656 115.58658203 100.89453125 114.53515625 C99.22360406 110.47826547 98.89931608 106.94032919 98.89453125 102.5546875 C98.89324219 101.40355469 98.89195312 100.25242187 98.890625 99.06640625 C98.89449219 97.86628906 98.89835938 96.66617188 98.90234375 95.4296875 C98.89847656 94.26050781 98.89460937 93.09132813 98.890625 91.88671875 C98.89793079 85.3042023 99.19515528 78.83958077 99.8046875 72.28710938 C100.1582681 67.74949165 100.13450378 63.22813977 100.08984375 58.6796875 C100.08307617 57.33003906 100.08307617 57.33003906 100.07617188 55.953125 C100.06460534 53.77861568 100.04668178 51.60414159 100.02734375 49.4296875 C79.67802689 41.6115754 59.29875728 33.87408141 38.90234375 26.1796875 C37.24496689 25.5543512 37.24496689 25.5543512 35.55410767 24.91638184 C34.46802216 24.50666138 33.38193665 24.09694092 32.26293945 23.67480469 C31.18612411 23.26827667 30.10930878 22.86174866 28.99986267 22.44290161 C26.85876296 21.63669848 24.71640787 20.83382096 22.57276917 20.03439331 C17.15057644 18.00883239 11.76094205 15.92882158 6.40087891 13.74365234 C5.32524689 13.31473694 4.24961487 12.88582153 3.14138794 12.44390869 C1.10860815 11.63190128 -0.91666955 10.80073637 -2.93215942 9.94671631 C-10.63903995 6.90626254 -15.49809763 7.63532559 -23.05566406 10.62646484 C-23.79655273 11.0023877 -24.53744141 11.37831055 -25.30078125 11.765625 C-31.39521009 14.69403106 -37.67963664 17.03406026 -44.00827026 19.39529419 C-47.61589908 20.74966333 -51.20931922 22.1408316 -54.8046875 23.52734375 C-68.24146463 28.69738967 -81.70666681 33.79298886 -95.16729736 38.9005127 C-98.35906029 40.11171081 -101.55063044 41.3234158 -104.7421875 42.53515625 C-106.18219368 43.08120766 -106.18219368 43.08120766 -107.65129089 43.63829041 C-108.54342789 43.9770369 -109.43556488 44.31578339 -110.35473633 44.66479492 C-111.51662224 45.10561653 -111.51662224 45.10561653 -112.70198059 45.55534363 C-114.33836967 46.18544981 -115.96104524 46.85158807 -117.57377625 47.53999329 C-119.97265625 48.4296875 -119.97265625 48.4296875 -122.97265625 48.4296875 C-123.66647561 82.56591316 -123.66647561 82.56591316 -119.97265625 116.4296875 C-119.8010498 117.39132813 -119.62944336 118.35296875 -119.45263672 119.34375 C-113.39547442 152.16826492 -100.81906125 182.9214089 -78.97265625 208.4296875 C-77.81830078 209.78513672 -77.81830078 209.78513672 -76.640625 211.16796875 C-70.92770308 217.67260269 -64.85928488 223.19621508 -57.97265625 228.4296875 C-56.95945312 229.21988281 -55.94625 230.01007813 -54.90234375 230.82421875 C-43.58752189 239.4243684 -24.59330827 253.4296875 -9.97265625 253.4296875 C-7.08196113 252.52534894 -7.08196113 252.52534894 -4.84375 251.45703125 C2.05232907 248.36873902 8.47544489 247.29383279 16.02734375 248.4296875 C17.39244296 249.38586841 18.73183445 250.38114878 20.02734375 251.4296875 C16.71914623 253.04283538 13.40505285 254.64350518 10.08984375 256.2421875 C9.16365234 256.69400391 8.23746094 257.14582031 7.28320312 257.61132812 C4.54815366 258.9260712 1.79907672 260.19426629 -0.97265625 261.4296875 C-1.75914551 261.7807959 -2.54563477 262.1319043 -3.35595703 262.49365234 C-10.73073896 265.40091036 -16.17691361 263.62780753 -23.296875 260.765625 C-24.7562943 260.12320277 -26.21065145 259.46917743 -27.66015625 258.8046875 C-28.43907227 258.45132324 -29.21798828 258.09795898 -30.02050781 257.73388672 C-73.24890814 237.78299791 -103.81624802 202.60572421 -120.52734375 158.37109375 C-130.29688577 131.41381311 -134.2039368 102.91088987 -134.28515625 74.3671875 C-134.28892273 73.64023682 -134.29268921 72.91328613 -134.29656982 72.16430664 C-134.32393322 61.7779838 -133.48135385 51.70385767 -131.97265625 41.4296875 C-131.31947418 41.18373337 -130.66629211 40.93777924 -129.99331665 40.68437195 C-121.52766898 37.49644496 -113.06248938 34.30727661 -104.59765625 31.1171875 C-103.91476658 30.85983322 -103.23187691 30.60247894 -102.52829361 30.33732605 C-80.46041336 22.02034601 -58.40502615 13.6712646 -36.36376953 5.28393555 C-35.37815536 4.90889389 -34.3925412 4.53385223 -33.37705994 4.14744568 C-31.56606508 3.45820357 -29.7551541 2.76874101 -27.9443512 2.07899475 C-26.35988396 1.47576304 -24.77396518 0.87632514 -23.18637085 0.28137207 C-21.71784446 -0.28361551 -20.25970305 -0.87642108 -18.81387329 -1.49719238 C-11.54735817 -4.53513769 -7.06387313 -2.77380407 0 0 Z " fill="#CFD6E8" transform="translate(267.97265625,85.5703125)"/>
<path d="M0 0 C0.74494217 0.33557922 1.48988434 0.67115845 2.25740051 1.01690674 C3.84917069 1.73437126 5.44009049 2.45372499 7.0302124 3.17483521 C11.23744845 5.08257167 15.45104988 6.97615696 19.6640625 8.87109375 C20.51768372 9.25544083 21.37130493 9.6397879 22.25079346 10.03578186 C30.91101724 13.93042663 39.60495849 17.74652498 48.30859375 21.54296875 C49.00743683 21.84796295 49.70627991 22.15295715 50.42630005 22.4671936 C54.26108992 24.14052852 58.09682941 25.81166485 61.93359375 27.48046875 C63.52606902 67.46929224 51.22236626 111.06037179 24.62109375 141.54296875 C13.06282358 154.01009435 -0.63666895 165.14526873 -17.06640625 170.48046875 C-21.66290705 170.24091171 -25.64099945 167.96241856 -29.69140625 165.91796875 C-30.75319092 165.38224243 -30.75319092 165.38224243 -31.83642578 164.83569336 C-56.93645468 151.85282159 -72.3670222 130.40378346 -84.06640625 105.48046875 C-84.75863281 104.05927734 -84.75863281 104.05927734 -85.46484375 102.609375 C-92.03362173 88.19571886 -95.04994429 72.10334158 -97.44140625 56.54296875 C-97.60906494 55.47941162 -97.77672363 54.41585449 -97.94946289 53.32006836 C-99.18065342 44.67651348 -99.22998425 36.18715251 -99.06640625 27.48046875 C-97.5432844 26.84583465 -96.02016239 26.21120091 -94.49703979 25.5765686 C-93.10814173 24.99785934 -91.71924616 24.4191441 -90.33035278 23.84042358 C-86.37084578 22.19059752 -82.41129226 20.54088322 -78.45166016 18.89135742 C-70.796106 15.70203583 -63.14080991 12.51210441 -55.48718262 9.31816101 C-52.24921454 7.96696519 -49.01102811 6.61629311 -45.77282715 5.26565552 C-44.23341157 4.62339947 -42.69410276 3.98088746 -41.15490723 3.33810425 C-40.41832886 3.03051178 -39.68175049 2.72291931 -38.92285156 2.40600586 C-38.20754272 2.10700882 -37.49223389 1.80801178 -36.75524902 1.49995422 C-35.37480789 0.92559511 -33.99276777 0.35506107 -32.60900879 -0.21125793 C-29.74758209 -1.3834089 -26.92839151 -2.58646217 -24.14550781 -3.93603516 C-22.88818848 -4.52843994 -22.88818848 -4.52843994 -21.60546875 -5.1328125 C-20.59154053 -5.64968628 -20.59154053 -5.64968628 -19.55712891 -6.17700195 C-13.05030589 -7.07183362 -5.81907408 -2.65692817 0 0 Z M-24.96875 6.234375 C-26.01570038 6.67314972 -26.01570038 6.67314972 -27.08380127 7.12078857 C-29.39268162 8.08975653 -31.69831691 9.06619868 -34.00390625 10.04296875 C-36.42535515 11.06312782 -38.84741717 12.08182217 -41.26948547 13.10050964 C-42.95034221 13.80768967 -44.63091024 14.51555629 -46.311203 15.22407532 C-52.33677191 17.76257499 -58.37729263 20.26276225 -64.42578125 22.74609375 C-66.90112767 23.76539643 -69.37626537 24.78520436 -71.85134888 25.80514526 C-73.45257329 26.46349669 -75.0546875 27.11968815 -76.65768433 27.77371216 C-78.89414607 28.68679791 -81.12706236 29.60807653 -83.359375 30.53125 C-84.02745178 30.80144958 -84.69552856 31.07164917 -85.3838501 31.35003662 C-88.88474134 32.64080088 -88.88474134 32.64080088 -91.06640625 35.48046875 C-89.35276412 74.03741667 -77.32338433 115.92904427 -48.39648438 143.04589844 C-42.15467878 148.54806811 -35.38040258 153.16354943 -28.12890625 157.23046875 C-27.52651123 157.57835449 -26.92411621 157.92624023 -26.3034668 158.28466797 C-21.83384526 160.64100643 -18.9101366 160.73929133 -14.06640625 159.48046875 C-5.95602252 155.98767576 1.2480665 151.20404963 7.93359375 145.48046875 C8.7328125 144.825625 9.53203125 144.17078125 10.35546875 143.49609375 C34.55389827 122.90488354 45.69326638 91.23795679 51.18359375 60.85546875 C51.34698242 59.9624707 51.51037109 59.06947266 51.67871094 58.14941406 C53.06306802 49.96429213 53.51370046 41.75966912 53.93359375 33.48046875 C45.68701789 29.86215189 37.43746282 26.25072276 29.18431091 22.64743042 C25.06681171 20.84969648 20.95012891 19.05013506 16.83496094 17.24707031 C12.59110239 15.38798752 8.34476285 13.53467674 4.09677124 11.68505859 C2.44702126 10.96563802 0.79811283 10.2442845 -0.84994507 9.52099609 C-3.16599638 8.504965 -5.48493753 7.49583328 -7.8046875 6.48828125 C-8.84322372 6.02991379 -8.84322372 6.02991379 -9.90274048 5.56228638 C-16.008622 2.92591186 -19.0656858 3.71693693 -24.96875 6.234375 Z " fill="#D0D6E8" transform="translate(275.06640625,134.51953125)"/>
<path d="M0 0 C6.17992934 3.20902753 10.79590965 8.88957232 13.0625 15.4375 C14.19615948 24.40880526 12.060933 30.78475913 7.25 38.25 C5.0625 40.4375 5.0625 40.4375 1.46484375 41.63671875 C-0.51797791 42.60377255 -0.51797791 42.60377255 -1.9375 44.4375 C-2.8818271 49.41570738 -2.69614068 54.39432283 -2.5625 59.4375 C-2.51818048 61.50991931 -2.48443549 63.58016699 -2.48104858 65.65307617 C-2.47677115 67.533285 -2.43395019 69.41328862 -2.38916016 71.29296875 C-2.9375 74.4375 -2.9375 74.4375 -5.27490234 76.83203125 C-8.52459559 78.79150152 -10.2051283 79.07279731 -13.9375 78.4375 C-16.24025556 76.5704009 -17.61573871 75.08102259 -18.9375 72.4375 C-19.02309118 70.25925039 -19.04463412 68.07834745 -19.03515625 65.8984375 C-19.03193359 64.59648437 -19.02871094 63.29453125 -19.02539062 61.953125 C-19.01703466 60.57291601 -19.00856971 59.19270768 -19 57.8125 C-18.99498501 56.42448074 -18.9904221 55.03645978 -18.98632812 53.6484375 C-18.97450976 50.24474868 -18.95803434 46.84114561 -18.9375 43.4375 C-19.56076172 43.29650879 -20.18402344 43.15551758 -20.82617188 43.01025391 C-25.76986671 41.6691452 -29.21237419 37.31136956 -32.375 33.5 C-35.33798064 27.72862902 -34.70971503 20.68295841 -33.9375 14.4375 C-31.6145676 7.75649973 -25.98633318 2.96369506 -20.109375 -0.703125 C-14.00877817 -3.11703022 -6.01548357 -2.38368652 0 0 Z " fill="#FCFCFE" transform="translate(399.9375,330.5625)"/>
<path d="M0 0 C2.75593155 2.23099221 5.21435433 4.5240402 7.625 7.125 C8.305625 7.846875 8.98625 8.56875 9.6875 9.3125 C16.98350843 19.90347998 16.06971244 30.7312064 15.625 43.125 C12.985 43.125 10.345 43.125 7.625 43.125 C7.62089111 42.57150879 7.61678223 42.01801758 7.61254883 41.44775391 C7.63886923 25.18609307 7.63886923 25.18609307 0.01953125 11.30859375 C-5.42031112 6.14261072 -11.32433954 4.02242971 -18.75 3.625 C-25.58691388 3.8430985 -31.11593634 6.23034641 -36.2265625 10.76953125 C-42.55935953 17.67945511 -43.83340827 24.47083106 -44.0625 33.5625 C-44.09666016 34.48482422 -44.13082031 35.40714844 -44.16601562 36.35742188 C-44.24782994 38.61315951 -44.31719122 40.86854119 -44.375 43.125 C-47.015 43.125 -49.655 43.125 -52.375 43.125 C-52.98758499 29.71221614 -53.39773612 18.07817176 -45.125 6.75 C-32.19714667 -5.59022363 -16.09780664 -8.94322591 0 0 Z " fill="#5A78E8" transform="translate(408.375,248.875)"/>
<path d="M0 0 C4.6 2.2 4.6 2.2 6 5 C6.65157772 9.73790088 6.65620107 12.99519212 4 17.0625 C0.15043788 19.54867554 -2.54150049 19.94574232 -7 19 C-10.00697829 17.46452173 -11.53577667 16.38113648 -12.62890625 13.12890625 C-13.27092057 9.55390019 -13.21701031 7.49912371 -11.75 4.125 C-8.1848005 -0.20417082 -5.39444547 -0.4650384 0 0 Z " fill="#FE5D54" transform="translate(205,198)"/>
<path d="M0 0 C3.11829207 1.34653521 4.60097612 2.34705183 6.375 5.25 C7.20601533 8.90646745 6.98701011 11.38096294 6 15 C3.87051798 17.51666056 2.3144841 18.71851452 -0.93359375 19.4140625 C-4.97339516 19.70425617 -6.60776776 19.29208784 -9.9375 16.8125 C-12.04021316 13.94516387 -12.91190146 12.52394176 -13 9 C-11.36750779 2.30678192 -6.81921096 -0.99446826 0 0 Z " fill="#FD5E54" transform="translate(201,168)"/>
<path d="M0 0 C2.4375 1.625 2.4375 1.625 4 4 C4.5625 6.9375 4.5625 6.9375 4 10 C1.51397551 13.36344489 0.08574477 14.80057749 -4.0625 15.5625 C-7 15 -7 15 -9.375 13.4375 C-11.62340519 10.06489221 -11.56783945 7.97487617 -11 4 C-8.11188513 -0.5054592 -5.11821063 -0.73117295 0 0 Z " fill="#5E7CEA" transform="translate(393,345)"/>
</svg>
